<svg xmlns="http://www.w3.org/2000/svg" viewBox="0 0 400 100" width="100%" height="100">
  <rect x="0" y="0" width="400" height="100" fill="#0f172a" rx="8"/>

  <!-- Step 1: Small solid + medium transparent -->
  <rect x="10" y="10" width="80" height="80" rx="5" fill="none" stroke="#475569" stroke-width="2"/>
  <circle cx="50" cy="45" r="18" fill="none" stroke="#94a3b8" stroke-width="2"/>
  <circle cx="50" cy="45" r="8" fill="#3b82f6"/>
  <text x="50" y="85" font-family="sans-serif" font-size="10" fill="#94a3b8" text-anchor="middle">ภาพที่ 1</text>

  <!-- Arrow -->
  <path d="M 100,50 L 110,50" stroke="#94a3b8" stroke-width="2"/>

  <!-- Step 2: Medium solid + large transparent -->
  <rect x="120" y="10" width="80" height="80" rx="5" fill="none" stroke="#475569" stroke-width="2"/>
  <circle cx="160" cy="45" r="26" fill="none" stroke="#94a3b8" stroke-width="2"/>
  <circle cx="160" cy="45" r="18" fill="#3b82f6"/>
  <text x="160" y="85" font-family="sans-serif" font-size="10" fill="#94a3b8" text-anchor="middle">ภาพที่ 2</text>

  <!-- Arrow -->
  <path d="M 210,50 L 220,50" stroke="#94a3b8" stroke-width="2"/>

  <!-- Step 3: Large solid only (burst/full black-filled) -->
  <rect x="230" y="10" width="80" height="80" rx="5" fill="none" stroke="#475569" stroke-width="2"/>
  <circle cx="270" cy="45" r="26" fill="#3b82f6"/>
  <text x="270" y="85" font-family="sans-serif" font-size="10" fill="#94a3b8" text-anchor="middle">ภาพที่ 3</text>

  <!-- Arrow -->
  <path d="M 320,50 L 330,50" stroke="#94a3b8" stroke-width="2"/>

  <!-- Step 4: Question -->
  <rect x="340" y="10" width="50" height="80" rx="5" fill="none" stroke="#ef4444" stroke-width="2" stroke-dasharray="4"/>
  <text x="365" y="55" font-family="sans-serif" font-size="32" font-weight="bold" fill="#ef4444" text-anchor="middle">?</text>
</svg>
