<svg xmlns="http://www.w3.org/2000/svg" viewBox="0 0 200 200" width="100%" height="180">
  <rect x="0" y="0" width="200" height="200" fill="#0f172a" rx="5"/>
  <path d="M 20 180 L 180 180" stroke="#94a3b8" stroke-width="2"/>
  <path d="M 20 180 L 20 20" stroke="#94a3b8" stroke-width="2"/>
  
  <!-- Grid lines -->
  <line x1="20" y1="150" x2="180" y2="150" stroke="#334155" stroke-dasharray="2"/>
  <line x1="20" y1="120" x2="180" y2="120" stroke="#334155" stroke-dasharray="2"/>
  <line x1="20" y1="90" x2="180" y2="90" stroke="#334155" stroke-dasharray="2"/>
  <line x1="20" y1="60" x2="180" y2="60" stroke="#334155" stroke-dasharray="2"/>
  <line x1="20" y1="30" x2="180" y2="30" stroke="#334155" stroke-dasharray="2"/>

  <line x1="50" y1="20" x2="50" y2="180" stroke="#334155" stroke-dasharray="2"/>
  <line x1="80" y1="20" x2="80" y2="180" stroke="#334155" stroke-dasharray="2"/>
  <line x1="110" y1="20" x2="110" y2="180" stroke="#334155" stroke-dasharray="2"/>
  <line x1="140" y1="20" x2="140" y2="180" stroke="#334155" stroke-dasharray="2"/>
  <line x1="170" y1="20" x2="170" y2="180" stroke="#334155" stroke-dasharray="2"/>
  
  <!-- Labels -->
  <text x="20" y="193" font-family="sans-serif" font-size="8" fill="#94a3b8" text-anchor="middle">0</text>
  <text x="50" y="193" font-family="sans-serif" font-size="8" fill="#94a3b8" text-anchor="middle">1</text>
  <text x="80" y="193" font-family="sans-serif" font-size="8" fill="#94a3b8" text-anchor="middle">2</text>
  <text x="110" y="193" font-family="sans-serif" font-size="8" fill="#94a3b8" text-anchor="middle">3</text>
  <text x="140" y="193" font-family="sans-serif" font-size="8" fill="#94a3b8" text-anchor="middle">4</text>
  <text x="170" y="193" font-family="sans-serif" font-size="8" fill="#94a3b8" text-anchor="middle">5</text>

  <text x="12" y="183" font-family="sans-serif" font-size="8" fill="#94a3b8" text-anchor="end">0</text>
  <text x="12" y="153" font-family="sans-serif" font-size="8" fill="#94a3b8" text-anchor="end">1</text>
  <text x="12" y="123" font-family="sans-serif" font-size="8" fill="#94a3b8" text-anchor="end">2</text>
  <text x="12" y="93" font-family="sans-serif" font-size="8" fill="#94a3b8" text-anchor="end">3</text>
  <text x="12" y="63" font-family="sans-serif" font-size="8" fill="#94a3b8" text-anchor="end">4</text>
  <text x="12" y="33" font-family="sans-serif" font-size="8" fill="#94a3b8" text-anchor="end">5</text>
  
  <!-- Initial shape at (2,1) -->
  <polygon points="80,140 73,150 87,150" fill="#3b82f6"/>
  <circle cx="80" cy="140" r="2" fill="#ffffff"/>
  <text x="92" y="146" font-family="sans-serif" font-size="8" font-weight="bold" fill="#3b82f6">(2,1)</text>

  <!-- Path representation -->
  <path d="M 80,150 L 170,150 L 170,95" fill="none" stroke="#ef4444" stroke-width="2" stroke-dasharray="3"/>
  <circle cx="170" cy="90" r="3" fill="#ef4444"/>
</svg>
